<svg width="100" height="100" viewBox="0 0 100 100" fill="none" xmlns="http://www.w3.org/2000/svg">
<g clip-path="url(#clip0)">
<rect width="100" height="100" rx="14" fill="white"/>
<path d="M38.0959 42.84H43.2959V12.76H35.1359V21.88H26.4159V4.76H73.6159V21.88H64.8959V12.76H56.8159V42.84H62.0159V51H38.0959V42.84Z" fill="#4078C0"/>
<path d="M34.5128 52.2C38.8861 52.2 42.3528 53.6933 44.9128 56.68C47.5261 59.6667 48.8328 63.64 48.8328 68.6C48.8328 73.8267 47.4461 78.0133 44.6728 81.16C41.9528 84.2533 38.3528 85.8 33.8728 85.8C30.0861 85.8 26.8328 84.76 24.1128 82.68L23.8728 85H8.75281V77.96H12.9128V45H8.75281V37.96H24.7528V55.72C27.4728 53.3733 30.7261 52.2 34.5128 52.2ZM29.7128 77C31.7928 77 33.4461 76.28 34.6728 74.84C35.9528 73.3467 36.5928 71.4 36.5928 69C36.5928 66.44 35.9795 64.4667 34.7528 63.08C33.5261 61.6933 31.8461 61 29.7128 61C27.9528 61 26.2995 61.6133 24.7528 62.84V75.48C26.3528 76.4933 28.0061 77 29.7128 77Z" fill="#E1660C" fill-opacity="0.8"/>
<path d="M90.2291 77.96V85H75.3491L75.1891 82.76C72.2557 84.7867 68.9224 85.8 65.1891 85.8C62.2557 85.8 59.6691 85.1067 57.4291 83.72C55.1891 82.3333 53.4291 80.36 52.1491 77.8C50.9224 75.24 50.3091 72.2533 50.3091 68.84C50.3091 65.5333 50.9224 62.6267 52.1491 60.12C53.4291 57.6133 55.1891 55.6667 57.4291 54.28C59.6691 52.8933 62.2024 52.2 65.0291 52.2C68.7624 52.2 71.9091 53.2933 74.4691 55.48V45H69.4291V37.96H86.3091V77.96H90.2291ZM62.5491 69.16C62.5491 71.5067 63.1891 73.4 64.4691 74.84C65.8024 76.28 67.4824 77 69.5091 77C71.3757 77 73.0291 76.52 74.4691 75.56V62.68C73.0291 61.56 71.3491 61 69.4291 61C67.2957 61 65.6157 61.72 64.3891 63.16C63.1624 64.5467 62.5491 66.5467 62.5491 69.16Z" fill="#D81B60" fill-opacity="0.75"/>
<path d="M32.9009 95.024H36.0929V98H32.9009V95.024ZM57.3914 95.888V98H51.5834V95.888H52.6154V92.072C52.6154 91.592 52.4954 91.224 52.2554 90.968C52.0314 90.696 51.7194 90.56 51.3194 90.56C50.7594 90.56 50.1754 90.752 49.5674 91.136C49.5834 91.216 49.5914 91.344 49.5914 91.52V95.888H50.8154V98H45.0074V95.888H46.0394V92.072C46.0394 91.592 45.9274 91.224 45.7034 90.968C45.4794 90.696 45.1594 90.56 44.7434 90.56C44.2794 90.56 43.7754 90.704 43.2314 90.992V95.888H44.2634V98H38.4074V95.888H39.6554V90.488H38.4314V88.4H42.9674L43.0154 89.24C44.0874 88.52 45.1914 88.16 46.3274 88.16C46.9674 88.16 47.5194 88.288 47.9834 88.544C48.4634 88.8 48.8314 89.152 49.0874 89.6C50.3514 88.64 51.6154 88.16 52.8794 88.16C53.9034 88.16 54.7034 88.472 55.2794 89.096C55.8714 89.704 56.1674 90.504 56.1674 91.496V95.888H57.3914ZM68.0578 93.752H61.4338C61.5778 94.36 61.8738 94.824 62.3218 95.144C62.7858 95.448 63.3538 95.6 64.0258 95.6C65.1298 95.6 66.1218 95.256 67.0018 94.568L67.9858 96.68C67.4258 97.176 66.7618 97.568 65.9938 97.856C65.2418 98.128 64.4258 98.264 63.5458 98.264C61.8658 98.264 60.5218 97.816 59.5138 96.92C58.5218 96.024 58.0258 94.784 58.0258 93.2C58.0258 92.208 58.2498 91.328 58.6978 90.56C59.1458 89.792 59.7698 89.2 60.5698 88.784C61.3698 88.352 62.2738 88.136 63.2818 88.136C64.7698 88.136 65.9378 88.592 66.7858 89.504C67.6338 90.416 68.0578 91.616 68.0578 93.104V93.752ZM64.7698 92.24C64.7698 91.68 64.6258 91.24 64.3378 90.92C64.0658 90.6 63.6738 90.44 63.1618 90.44C62.6658 90.44 62.2658 90.6 61.9618 90.92C61.6578 91.224 61.4658 91.664 61.3858 92.24H64.7698Z" fill="#606060"/>
</g>
<defs>
<clipPath id="clip0">
<rect width="100" height="100" rx="14" fill="white"/>
</clipPath>
</defs>
</svg>
